<?xml version="1.0" ?><!DOCTYPE svg  PUBLIC '-//W3C//DTD SVG 1.1//EN'  'http://www.w3.org/Graphics/SVG/1.1/DTD/svg11.dtd'><svg enable-background="new 0 0 64 64" height="64px" id="Layer_1" version="1.1" viewBox="0 0 64 64" width="64px" xml:space="preserve" xmlns="http://www.w3.org/2000/svg" xmlns:xlink="http://www.w3.org/1999/xlink"><g id="Ripple_XRP"><g><g><g><g><g><g><g><circle cx="32" cy="32" fill="#FFFFFF" r="26.5"/></g></g></g><g><g><g><g><path d="M58,32c0-11.868-7.996-21.897-18.881-25.001C37.462,6.675,35.752,6.5,34,6.5           C19.365,6.5,7.5,18.365,7.5,33c0,7.773,3.348,14.765,8.679,19.612C20.565,55.987,26.051,58,32,58           C46.337,58,58,46.337,58,32z" fill="#FFE57F"/></g></g></g></g><g><g><g><path d="M42.852,7.825C50.99,12.349,56.5,21.029,56.5,31c0,14.635-11.865,26.5-26.5,26.5          c-3.868,0-7.539-0.836-10.852-2.325C22.955,57.291,27.336,58.5,32,58.5c14.635,0,26.5-11.865,26.5-26.5          C58.5,21.233,52.074,11.973,42.852,7.825z" fill="#FFD740"/></g></g></g><g><g><g><path d="M32,59C17.112,59,5,46.888,5,32S17.112,5,32,5s27,12.112,27,27S46.888,59,32,59z M32,6          C17.663,6,6,17.663,6,32s11.663,26,26,26s26-11.663,26-26S46.337,6,32,6z" fill="#37474F"/></g></g></g></g><g><g><g><g><circle cx="32" cy="32" fill="#FFD740" r="22.5"/></g></g></g><g><g><g><path d="M11.5,33c0-12.426,10.074-22.5,22.5-22.5c3.212,0,6.265,0.678,9.029,1.892          C39.77,10.554,36.009,9.5,32,9.5C19.574,9.5,9.5,19.574,9.5,32c0,9.214,5.541,17.129,13.471,20.608          C16.126,48.75,11.5,41.417,11.5,33z" fill="#FFCA28"/></g></g></g><g><g><g><path d="M41.029,11.392C47.874,15.25,52.5,22.583,52.5,31c0,12.426-10.074,22.5-22.5,22.5          c-3.212,0-6.265-0.678-9.029-1.892C24.23,53.446,27.991,54.5,32,54.5c12.426,0,22.5-10.074,22.5-22.5          C54.5,22.786,48.959,14.871,41.029,11.392z" fill="#FFE57F"/></g></g></g><g><g><g><path d="M32,55C19.317,55,9,44.683,9,32S19.317,9,32,9s23,10.317,23,23S44.683,55,32,55z M32,10          c-12.131,0-22,9.869-22,22s9.869,22,22,22s22-9.869,22-22S44.131,10,32,10z" fill="#37474F"/></g></g></g></g></g></g></g><g><g><g><g><path d="M34.525,17.63c-1.996,1.173-3.179,3.29-3.179,5.523c0,1.172,0.472,2.353,1.061,3.407       c0.472,0.941,0.702,2.585-0.941,3.407c-1.172,0.703-2.706,0.235-3.409-0.94c-0.701-0.942-1.523-1.883-2.584-2.585       c-1.996-1.174-4.351-1.174-6.347,0c-1.996,1.172-3.174,3.295-3.174,5.527c0,2.234,1.173,4.35,3.174,5.526       c1.996,1.172,4.351,1.172,6.346,0c1.061-0.59,1.883-1.525,2.467-2.586c0.471-0.823,1.765-1.883,3.408-0.941       c1.173,0.701,1.525,2.236,0.942,3.408c-0.59,1.06-0.942,2.235-0.942,3.408c0,2.235,1.173,4.35,3.178,5.521       c1.996,1.174,4.351,1.174,6.346,0c1.996-1.172,3.178-3.289,3.178-5.521s-1.176-4.35-3.177-5.525       c-1.061-0.59-2.237-0.823-3.527-0.823c-1.061,0-2.467-0.701-2.467-2.467c0-1.411,1.061-2.466,2.467-2.466       c1.173,0,2.467-0.234,3.527-0.823c1.995-1.172,3.177-3.29,3.177-5.521c0-2.232-1.176-4.351-3.177-5.522       c-0.941-0.59-2.115-0.823-3.175-0.823C36.643,16.808,35.461,17.047,34.525,17.63L34.525,17.63z" fill="#FFFFFF"/></g></g></g><g><g><g><path d="M43.548,41.785c0-2.08-1.123-4.032-2.93-5.095c-0.91-0.505-1.984-0.754-3.274-0.754       c-1.475,0-2.967-1.02-2.967-2.967c0-1.69,1.275-2.966,2.967-2.966c1.235,0,2.401-0.271,3.284-0.761       c1.797-1.055,2.92-3.006,2.92-5.084c0-2.082-1.122-4.033-2.93-5.091c-0.781-0.489-1.814-0.755-2.922-0.755c0,0,0,0-0.001,0       c-1.104,0-2.15,0.271-2.905,0.741c-1.82,1.069-2.943,3.021-2.943,5.099c0,0.927,0.326,1.962,0.997,3.163       c0.337,0.672,0.472,1.416,0.381,2.063c-0.087,0.622-0.425,1.48-1.535,2.036c-0.404,0.244-0.908,0.383-1.423,0.383       c-1.069,0-2.08-0.58-2.639-1.514c-0.823-1.102-1.581-1.862-2.432-2.425c-1.761-1.034-4.013-1.046-5.816,0.014       c-1.807,1.061-2.928,3.014-2.928,5.097c0,2.081,1.122,4.033,2.928,5.096c1.806,1.059,4.035,1.059,5.839,0       c0.911-0.508,1.696-1.334,2.282-2.396c0.416-0.728,1.333-1.569,2.563-1.569c0.512,0,1.026,0.146,1.53,0.436       c1.371,0.819,1.869,2.603,1.142,4.064c-0.586,1.054-0.89,2.148-0.89,3.186c0,2.083,1.123,4.033,2.93,5.09       c1.81,1.063,4.038,1.061,5.84,0.001C42.425,45.814,43.548,43.863,43.548,41.785z" fill="#FFE57F"/></g></g></g><g><g><g><path d="M37.697,47.687c-1.186,0-2.37-0.328-3.427-0.949c-2.111-1.234-3.424-3.515-3.424-5.952       c0-1.207,0.348-2.47,1.006-3.651c0.477-0.96,0.14-2.196-0.763-2.736c-0.343-0.196-0.69-0.298-1.025-0.298       c-0.857,0-1.467,0.665-1.692,1.059c-0.671,1.221-1.592,2.183-2.657,2.774c-2.092,1.229-4.73,1.233-6.842-0.005       c-2.11-1.241-3.421-3.524-3.421-5.958c0-2.437,1.311-4.72,3.421-5.959s4.739-1.241,6.854,0.001       c1.255,0.83,2.158,1.947,2.731,2.717c0.599,0.993,1.853,1.348,2.751,0.811c0.613-0.309,0.946-0.739,1.025-1.3       c0.09-0.639-0.162-1.23-0.274-1.455c-0.746-1.335-1.113-2.528-1.113-3.631c0-2.432,1.313-4.713,3.426-5.954       c0.912-0.569,2.118-0.886,3.386-0.886c1.331,0,2.553,0.319,3.479,0.899c2.099,1.229,3.411,3.511,3.411,5.946       c0,2.432-1.312,4.712-3.424,5.952c-1.039,0.578-2.378,0.893-3.78,0.893c-1.14,0-1.967,0.827-1.967,1.966       c0,1.556,1.286,1.967,1.967,1.967c1.465,0,2.698,0.29,3.771,0.887c2.122,1.246,3.434,3.528,3.434,5.962       c0,2.432-1.313,4.713-3.425,5.953C40.068,47.358,38.883,47.687,37.697,47.687z M30.064,33.1c0.512,0,1.026,0.146,1.53,0.436       c1.371,0.819,1.869,2.603,1.142,4.064c-0.586,1.054-0.89,2.148-0.89,3.186c0,2.083,1.123,4.033,2.93,5.09       c1.81,1.063,4.038,1.061,5.84,0.001c1.809-1.062,2.932-3.013,2.932-5.091c0-2.08-1.123-4.032-2.93-5.095       c-0.91-0.505-1.984-0.754-3.274-0.754c-1.475,0-2.967-1.02-2.967-2.967c0-1.69,1.275-2.966,2.967-2.966       c1.235,0,2.401-0.271,3.284-0.761c1.797-1.055,2.92-3.006,2.92-5.084c0-2.082-1.122-4.033-2.93-5.091       c-0.781-0.489-1.814-0.755-2.922-0.755c0,0,0,0-0.001,0c-1.104,0-2.15,0.271-2.905,0.741c-1.82,1.069-2.943,3.021-2.943,5.099       c0,0.927,0.326,1.962,0.997,3.163c0.337,0.672,0.472,1.416,0.381,2.063c-0.087,0.622-0.425,1.48-1.535,2.036       c-0.404,0.244-0.908,0.383-1.423,0.383c-1.069,0-2.08-0.58-2.639-1.514c-0.823-1.102-1.581-1.862-2.432-2.425       c-1.761-1.034-4.013-1.046-5.816,0.014c-1.807,1.061-2.928,3.014-2.928,5.097c0,2.081,1.122,4.033,2.928,5.096       c1.806,1.059,4.035,1.059,5.839,0c0.911-0.508,1.696-1.334,2.282-2.396C27.917,33.941,28.834,33.1,30.064,33.1z" fill="#37474F"/></g></g></g></g></g></svg>